<svg width="90" height="90" viewBox="0 0 90 90" fill="none" xmlns="http://www.w3.org/2000/svg">
    <g clip-path="url(#clip0_190_90)">
        <path
            d="M79.4544 34.2019C82.6566 34.2012 85.2532 36.7966 85.2539 39.9988V79.5521H4.74609V40.0169C4.74539 36.8147 7.3408 34.2181 10.543 34.2174L79.4544 34.2019Z"
            fill="#C2F6FF" />
        <path d="M10.0195 39.9729H79.9805V79.552H10.0195V39.9729Z" fill="#909EC0" />
        <path d="M10.0195 39.9729H71.8738L71.8828 79.552H79.9805V39.9729H10.0195Z" fill="#808DAB" />
        <path
            d="M83.4795 88.0779L6.53596 88.0951C3.65859 88.0959 1.32545 85.7638 1.32492 82.8864L1.32422 79.552H88.6875L88.6882 82.8667C88.6887 85.7441 86.3568 88.0772 83.4795 88.0779Z"
            fill="#8EE6F3" />
        <path
            d="M1.32422 79.552H81.3638L81.3645 82.8992C81.365 85.5859 79.3319 87.7972 76.7201 88.0793L83.4795 88.0777C86.3568 88.077 88.6889 85.7441 88.6882 82.8667L88.6875 79.552H1.32422Z"
            fill="#72D1FB" />
        <path
            d="M39.293 79.552L39.2933 80.9871C39.2937 82.6273 40.6236 83.9566 42.2637 83.9562L47.75 83.955C49.3902 83.9546 50.7195 82.6247 50.7191 80.9846L50.7187 79.552H39.293Z"
            fill="#C2F6FF" />
        <path
            d="M28.8316 20.3264C24.3608 20.3275 20.7372 23.9526 20.7383 28.4234L20.7425 47.2136C20.7436 51.6844 24.3687 55.3079 28.8395 55.3069L28.842 66.5569L40.0895 55.3044L60.6375 55.2999C65.1083 55.2988 68.7318 51.6737 68.7308 47.2028L68.6958 20.3264H28.8316Z"
            fill="#FFD36C" />
        <path
            d="M59.6183 39.8319L52.2422 42.4667L52.4234 34.6361L74.7652 3.69827C76.1999 1.71142 78.9738 1.26388 80.9604 2.69878C82.9473 4.13351 83.3948 6.90734 81.9599 8.89402L59.6183 39.8319Z"
            fill="#FA9084" />
        <path
            d="M80.9597 2.69871C78.9728 1.26398 76.1992 1.71134 74.7644 3.6982L71.5 8.21859L78.6056 13.5379L81.9592 8.89394C83.3941 6.90708 82.9465 4.13343 80.9597 2.69871Z"
            fill="#FF6CB5" />
        <path d="M52.2422 42.4668L59.6183 39.832L52.4234 34.6362L52.2422 42.4668Z" fill="#FF956A" />
        <path
            d="M88.6816 78.3532H86.5723V40.0302C86.5723 36.1061 83.3799 32.9137 79.4558 32.9137H70.0488V27.6742L78.7797 15.5898C79.0425 15.9881 79.2229 16.4393 79.3009 16.9245C79.4459 17.8248 79.2316 18.7278 78.6974 19.467L73.0589 27.2715C72.0745 28.6343 74.2069 30.1853 75.1961 28.8157L80.8346 21.0112C81.7813 19.7011 82.161 18.1008 81.9039 16.5051C81.7123 15.3154 81.1833 14.2347 80.3839 13.3693L83.0373 9.6969C83.9377 8.45061 84.2989 6.92852 84.0544 5.41047C83.8097 3.8926 82.9886 2.56088 81.7425 1.66053C79.1703 -0.197652 75.5648 0.382778 73.7063 2.95516L62.0191 19.1314C61.5621 19.0639 61.0993 19.027 60.6352 19.027H28.8374C23.6468 19.027 19.4238 23.2498 19.4238 28.4406V32.9137H10.5442C6.62027 32.9137 3.42773 36.1063 3.42773 40.0302V63.4557C3.42773 65.1564 6.06445 65.1564 6.06445 63.4557V40.0302C6.06445 37.56 8.07416 35.5505 10.5442 35.5505H19.4238V38.685H10.0195C9.29127 38.685 8.70117 39.2751 8.70117 40.0033V78.3532H6.06445V70.487C6.06445 68.7863 3.42773 68.7863 3.42773 70.487V78.3532H1.31836C0.590098 78.3532 0 78.9433 0 79.6716V82.8991C0 86.4989 2.92852 89.4274 6.52834 89.4274H72.0703C73.771 89.4274 73.771 86.7907 72.0703 86.7907H6.52834C4.38258 86.7907 2.63672 85.0448 2.63672 82.8991V80.9899H37.9688V81.0084C37.9688 83.3728 39.8923 85.2966 42.2569 85.2966H47.7432C50.1077 85.2966 52.0314 83.373 52.0314 81.0084V80.9899H87.3635V82.8991C87.3635 85.0448 85.6176 86.7907 83.4718 86.7907H79.4531C77.7524 86.7907 77.7524 89.4274 79.4531 89.4274H83.4717C87.0715 89.4274 90 86.4989 90 82.8991V79.6716C90 78.9433 89.4099 78.3532 88.6816 78.3532ZM53.6857 37.1965L56.8164 39.4584L53.6061 40.6043L53.6857 37.1965ZM59.3234 38.0168L54.2668 34.3636L71.7168 10.2112L76.7733 13.8645L59.3234 38.0168ZM75.8436 4.4994C76.8507 3.10528 78.8047 2.79045 80.1986 3.79786C80.8738 4.28565 81.3187 5.00741 81.4512 5.83006C81.5838 6.65254 81.3881 7.47731 80.9002 8.15266L78.3176 11.7272L73.2611 8.07391L75.8436 4.4994ZM49.3945 81.0084C49.3945 81.9189 48.6536 82.6598 47.7431 82.6598H42.2568C41.3462 82.6598 40.6053 81.9189 40.6053 81.0084V80.9899H49.3944V81.0084H49.3945ZM11.3379 78.3532V41.3217H19.4238V47.2306C19.4238 51.9739 22.9503 55.9091 27.5191 56.5521V66.5757C27.5191 67.1088 27.8402 67.5898 28.3329 67.7937C28.4961 67.8613 28.6673 67.894 28.8371 67.894C29.1802 67.894 29.5174 67.7601 29.7698 67.508L40.6336 56.644H53.7891C55.4897 56.644 55.4897 54.0073 53.7891 54.0073H40.0874C39.7378 54.0073 39.4026 54.1462 39.1551 54.3933L30.1558 63.3928V55.3255C30.1558 54.5972 29.5657 54.0071 28.8374 54.0071C25.1007 54.0071 22.0605 50.967 22.0605 47.2302V28.4405C22.0605 24.7037 25.1007 21.6636 28.8374 21.6636H60.1896L51.3577 33.8879C51.203 34.102 51.1174 34.366 51.1082 34.6294L50.9252 42.4599C50.9043 43.3595 51.834 44.0366 52.6866 43.7322L60.0632 41.0992C60.3098 41.0129 60.5359 40.8411 60.6887 40.6297L67.4123 31.3236V47.2306C67.4123 50.9674 64.3721 54.0075 60.6354 54.0075C58.9347 54.0075 58.9347 56.6442 60.6354 56.6442C65.826 56.6442 70.049 52.4214 70.049 47.2306V41.3217H78.6623V78.3532H11.3379ZM81.2988 78.3532V40.0033C81.2988 39.2751 80.7087 38.685 79.9805 38.685H70.0488V35.5505H79.4558C81.926 35.5505 83.9355 37.5602 83.9355 40.0302V78.3532H81.2988Z"
            fill="#1E0306" />
        <path
            d="M45.5254 41.1724H30.9355C30.2073 41.1724 29.6172 41.7625 29.6172 42.4907C29.6172 43.219 30.2073 43.8091 30.9355 43.8091H45.5254C46.2537 43.8091 46.8438 43.219 46.8438 42.4907C46.8438 41.7625 46.2537 41.1724 45.5254 41.1724Z"
            fill="#1E0306" />
        <path
            d="M45.5254 31.8606H30.9355C30.2073 31.8606 29.6172 32.4507 29.6172 33.179C29.6172 33.9072 30.2073 34.4973 30.9355 34.4973H45.5254C46.2537 34.4973 46.8438 33.9072 46.8438 33.179C46.8438 32.4507 46.2537 31.8606 45.5254 31.8606Z"
            fill="#1E0306" />
    </g>
    <defs>
        <clipPath id="clip0_190_90">
            <rect width="90" height="90" fill="white" />
        </clipPath>
    </defs>
</svg>