<svg width="90" height="90" viewBox="0 0 90 90" fill="none" xmlns="http://www.w3.org/2000/svg">
    <path fill-rule="evenodd" clip-rule="evenodd"
        d="M45.5521 13.171L48.386 20.6353C48.4713 20.8598 48.6695 21.0038 48.9093 21.0155L56.884 21.4042C57.1338 21.4163 57.3394 21.5737 57.4168 21.8115C57.4939 22.0493 57.4201 22.2975 57.2252 22.4541L51.002 27.456C50.815 27.6063 50.7392 27.8396 50.8021 28.0711L52.8967 35.7755C52.9623 36.0169 52.8763 36.2611 52.674 36.408C52.4717 36.555 52.2129 36.5613 52.0036 36.4244L45.3234 32.0514C45.1226 31.92 44.8774 31.92 44.6767 32.0514L37.9966 36.4244C37.7875 36.5613 37.5285 36.555 37.3264 36.408C37.1241 36.2611 37.0381 36.0167 37.1037 35.7755L39.1983 28.0711C39.2612 27.8396 39.1854 27.6063 38.9984 27.456L32.7752 22.4541C32.5803 22.2975 32.5063 22.0493 32.5836 21.8115C32.6608 21.5737 32.8666 21.4165 33.1164 21.4042L41.0911 21.0155C41.3309 21.0039 41.5291 20.8598 41.6142 20.6353L44.4482 13.171C44.5369 12.9372 44.75 12.7902 45.0001 12.7902C45.2503 12.7902 45.4633 12.9372 45.5521 13.171ZM30.1072 10.8227L35.0952 15.3141C35.6716 15.8328 36.5594 15.7861 37.0782 15.2097C37.5969 14.6333 37.5502 13.7454 36.9738 13.2267L31.9858 8.73529C31.4094 8.21656 30.5215 8.26332 30.0028 8.83971C29.4841 9.41609 29.5307 10.304 30.1072 10.8227ZM58.0143 8.73529L52.9971 13.2529C52.4207 13.7716 52.374 14.6595 52.8927 15.2359C53.4114 15.8122 54.2993 15.859 54.8757 15.3403L59.8928 10.8227C60.4692 10.304 60.516 9.41609 59.9972 8.83971C59.4783 8.26332 58.5906 8.21656 58.0143 8.73529ZM46.4064 7.56652C46.4064 8.34313 45.7767 8.97277 45.0001 8.97277C44.2235 8.97277 43.5939 8.34313 43.5939 7.56652V2.40576C43.5939 1.62916 44.2235 0.999512 45.0001 0.999512C45.7767 0.999512 46.4064 1.62916 46.4064 2.40576V7.56652ZM45.0001 40.9365C50.4492 40.9365 54.8665 45.3539 54.8665 50.8027C54.8665 56.2518 50.4492 60.6692 45.0001 60.6692C39.5511 60.6692 35.1339 56.2518 35.1339 50.8027C35.1339 45.3537 39.5511 40.9365 45.0001 40.9365ZM64.4014 79.8411C63.3538 70.0515 55.0676 62.427 45.0001 62.427C34.9324 62.427 26.6463 70.0515 25.5986 79.8413V83.7854C25.5986 86.6577 27.9412 89.0004 30.8135 89.0004H59.1865C62.0588 89.0004 64.4014 86.6577 64.4014 83.7854V79.8411ZM74.4871 48.1013C78.5636 48.1013 81.8683 51.4062 81.8683 55.4826C81.8683 59.5591 78.5636 62.8638 74.4871 62.8638C70.4105 62.8638 67.1058 59.5591 67.1058 55.4826C67.1057 51.4062 70.4103 48.1013 74.4871 48.1013ZM15.5132 48.1013C19.5897 48.1013 22.8944 51.4062 22.8944 55.4826C22.8944 59.5591 19.5897 62.8638 15.5132 62.8638C11.4366 62.8638 8.13193 59.5591 8.13193 55.4826C8.13193 51.4062 11.4366 48.1013 15.5132 48.1013ZM15.513 64.8355C19.8147 64.8355 23.6817 66.696 26.3536 69.6562C24.468 72.5112 23.2177 75.8336 22.8148 79.4347H4.75254C3.65795 79.4347 2.71611 78.9588 2.0666 78.0778C1.41709 77.1968 1.24113 76.1564 1.56492 75.1106C3.40798 69.1589 8.95582 64.8355 15.513 64.8355ZM74.4869 64.8355C81.0444 64.8355 86.5921 69.1589 88.435 75.1106C88.7587 76.1564 88.5828 77.1966 87.9333 78.0778C87.2838 78.959 86.3421 79.4347 85.2473 79.4347H67.1851C66.7822 75.8336 65.5317 72.5114 63.6463 69.6562C66.3183 66.696 70.1853 64.8355 74.4869 64.8355ZM14.4049 13.171L17.2388 20.6353C17.3241 20.8598 17.5223 21.0038 17.7621 21.0155L25.7368 21.4042C25.9866 21.4163 26.1922 21.5737 26.2696 21.8115C26.3467 22.0493 26.2729 22.2975 26.078 22.4541L19.8548 27.456C19.6677 27.6063 19.592 27.8396 19.6549 28.0711L21.7495 35.7755C21.8151 36.0169 21.7291 36.2611 21.5268 36.408C21.3245 36.555 21.0657 36.5613 20.8564 36.4244L14.1762 32.0514C13.9754 31.92 13.7302 31.92 13.5295 32.0514L6.84943 36.4244C6.64025 36.5613 6.38132 36.555 6.17918 36.408C5.97685 36.2611 5.89089 36.0167 5.95646 35.7755L8.05107 28.0711C8.114 27.8396 8.03824 27.6063 7.85121 27.456L1.62802 22.454C1.43308 22.2973 1.35908 22.0491 1.43642 21.8113C1.51359 21.5735 1.71943 21.4163 1.96921 21.404L9.94388 21.0154C10.1836 21.0038 10.3819 20.8596 10.467 20.6352L13.3011 13.171C13.3899 12.9372 13.6029 12.7902 13.8531 12.7902C14.1032 12.7902 14.3161 12.9372 14.4049 13.171ZM76.6061 13.171L79.4401 20.6353C79.5253 20.8598 79.7236 21.0038 79.9634 21.0155L87.938 21.4042C88.1878 21.4163 88.3935 21.5737 88.4708 21.8115C88.548 22.0493 88.4742 22.2975 88.2792 22.4541L82.056 27.456C81.869 27.6063 81.7932 27.8396 81.8562 28.0711L83.9508 35.7755C84.0163 36.0169 83.9304 36.2611 83.7282 36.408C83.5259 36.555 83.2672 36.5613 83.0578 36.4244L76.3776 32.0514C76.1769 31.92 75.9316 31.92 75.7309 32.0514L69.0509 36.4244C68.8417 36.5613 68.5828 36.555 68.3804 36.408C68.1781 36.2611 68.0921 36.0167 68.1577 35.7755L70.2523 28.0711C70.3153 27.8396 70.2395 27.6063 70.0525 27.456L63.8293 22.4541C63.6343 22.2975 63.5603 22.0493 63.6377 21.8115C63.7148 21.5737 63.9207 21.4165 64.1705 21.4042L72.1451 21.0155C72.3849 21.0039 72.5832 20.8598 72.6683 20.6353L75.5022 13.171C75.591 12.9372 75.804 12.7902 76.0542 12.7902C76.3043 12.7902 76.5173 12.9372 76.6061 13.171Z"
        fill="#ED3C52" />
</svg>