<svg width="105" height="24" viewBox="0 0 105 24" fill="none" xmlns="http://www.w3.org/2000/svg">
    <g clip-path="url(#clip0_190_17737)">
        <path
            d="M14.8713 13.8539C14.8722 15.5498 11.9683 15.3567 11.043 15.3577V12.3511C11.9693 12.3511 14.8713 12.0853 14.8713 13.8539ZM24.333 12C24.333 18.6272 18.9602 24 12.333 24C5.70582 24 0.333008 18.6272 0.333008 12C0.333008 5.37281 5.70582 0 12.333 0C18.9602 0 24.333 5.37234 24.333 12ZM15.611 11.2992C16.4027 10.8961 16.8977 10.1855 16.7819 9.00234C16.6263 7.38469 15.2304 6.84281 13.4674 6.68812V4.44469H12.1019V6.62906C11.7429 6.62906 11.3758 6.63609 11.0116 6.64359V4.44469H9.64707V6.68766C9.35082 6.69375 9.06066 6.69938 8.77754 6.69938V6.69234L6.89363 6.69187V8.15063C6.89363 8.15063 7.90238 8.13141 7.88551 8.15016C8.43863 8.15016 8.61863 8.47125 8.67113 8.74875V11.3048C8.70957 11.3048 8.75926 11.3067 8.81551 11.3142C8.77004 11.3142 8.72129 11.3142 8.67113 11.3142V14.8945C8.64629 15.0684 8.5441 15.3464 8.15785 15.3469C8.17519 15.3623 7.16504 15.3469 7.16504 15.3469L6.89363 16.9777H8.67066C9.0016 16.9777 9.32691 16.9837 9.64613 16.9856V19.2548H11.0107V17.0095C11.3852 17.0175 11.7475 17.0203 12.1014 17.0198V19.2548H13.4664V16.9898C15.7629 16.8581 17.3697 16.2797 17.5694 14.1239C17.7307 12.3877 16.9136 11.6133 15.6105 11.3002L15.611 11.2992ZM14.2361 9.61219C14.2361 8.00297 11.8141 8.24813 11.0435 8.24813V10.9748C11.8141 10.9748 14.2357 11.1548 14.2361 9.61219Z"
            fill="#1E0306" />
    </g>
    <g clip-path="url(#clip1_190_17737)">
        <path
            d="M52.333 0C45.705 0 40.333 5.37256 40.333 12C40.333 18.6274 45.705 24 52.333 24C58.961 24 64.333 18.6269 64.333 12C64.333 5.37308 58.9605 0 52.333 0ZM53.0594 17.3454V18.7345C53.0594 18.9512 52.8907 19.1089 52.6735 19.1089H51.7476C51.5304 19.1089 51.3554 18.9512 51.3554 18.7345V17.4676C50.5032 17.429 49.6436 17.2472 48.9929 16.9997C48.6404 16.866 48.4441 16.4884 48.5375 16.1229L48.6885 15.5349C48.7412 15.3286 48.8791 15.1563 49.0676 15.0597C49.2561 14.9615 49.4775 14.9516 49.6755 15.0273C50.2953 15.267 51.0275 15.4414 51.8092 15.4414C52.8046 15.4414 53.4861 15.0571 53.4861 14.3583C53.4861 13.6946 52.9273 13.2753 51.6343 12.8382C49.7653 12.2094 48.4853 11.3363 48.4853 9.64167C48.4853 8.10479 49.5731 6.89952 51.4327 6.5324V5.2655C51.4327 5.04878 51.6181 4.85452 51.8353 4.85452H52.7612C52.9785 4.85452 53.1377 5.04878 53.1377 5.2655V6.40968C53.9508 6.44467 54.5378 6.5653 55.0287 6.7251C55.4 6.84625 55.6193 7.2353 55.5217 7.61443L55.389 8.14082C55.3373 8.34136 55.2047 8.5116 55.0229 8.60977C54.8412 8.70795 54.6266 8.72571 54.4302 8.65834C53.9843 8.50533 53.4025 8.36642 52.6651 8.36642C51.5298 8.36642 51.1627 8.85574 51.1627 9.34505C51.1627 9.92158 51.7742 10.2882 53.2589 10.8475C55.3373 11.5812 56.1723 12.5421 56.1723 14.1134C56.1718 15.668 55.0736 16.9966 53.0594 17.3454Z"
            fill="#1E0306" />
    </g>
    <path d="M90.7303 11.1426L91.8703 12.8569H89.7617V11.1426H90.7303Z" fill="#1E0306" />
    <path d="M92.7959 11.1426H94.9045V12.8569H93.9359L92.7959 11.1426Z" fill="#1E0306" />
    <path
        d="M92.333 0C89.9596 0 87.6396 0.703788 85.6662 2.02236C83.6928 3.34094 82.1547 5.21508 81.2465 7.4078C80.3382 9.60051 80.1006 12.0133 80.5636 14.3411C81.0266 16.6689 82.1695 18.807 83.8477 20.4853C85.526 22.1635 87.6642 23.3064 89.9919 23.7694C92.3197 24.2324 94.7325 23.9948 96.9252 23.0865C99.1179 22.1783 100.992 20.6402 102.311 18.6668C103.629 16.6934 104.333 14.3734 104.333 12C104.332 8.81757 103.068 5.76566 100.818 3.51535C98.5674 1.26503 95.5154 0.000568138 92.333 0ZM97.4759 12.8571C97.7032 12.8571 97.9212 12.9474 98.082 13.1082C98.2427 13.2689 98.333 13.487 98.333 13.7143C98.333 13.9416 98.2427 14.1596 98.082 14.3204C97.9212 14.4811 97.7032 14.5714 97.4759 14.5714H96.6187V17.1429C96.6181 17.3269 96.5588 17.506 96.4493 17.654C96.3399 17.8021 96.186 17.9112 96.0102 17.9657C95.9295 17.9897 95.8457 18.0013 95.7616 18C95.6202 18.0005 95.4809 17.9654 95.3566 17.898C95.2323 17.8306 95.1269 17.7331 95.0502 17.6143L93.0187 14.5714H89.7616V17.1429C89.7616 17.3702 89.6713 17.5882 89.5105 17.7489C89.3498 17.9097 89.1318 18 88.9044 18C88.6771 18 88.4591 17.9097 88.2983 17.7489C88.1376 17.5882 88.0473 17.3702 88.0473 17.1429V14.5714H87.1902C86.9628 14.5714 86.7448 14.4811 86.5841 14.3204C86.4233 14.1596 86.333 13.9416 86.333 13.7143C86.333 13.487 86.4233 13.2689 86.5841 13.1082C86.7448 12.9474 86.9628 12.8571 87.1902 12.8571H88.0473V11.1429H87.1902C86.9628 11.1429 86.7448 11.0525 86.5841 10.8918C86.4233 10.7311 86.333 10.513 86.333 10.2857C86.333 10.0584 86.4233 9.84037 86.5841 9.67962C86.7448 9.51888 86.9628 9.42857 87.1902 9.42857H88.0473V6.85714C88.0461 6.67274 88.1047 6.49293 88.2143 6.34462C88.3239 6.1963 88.4786 6.08746 88.6552 6.03439C88.8317 5.98131 89.0208 5.98685 89.194 6.05019C89.3672 6.11352 89.5152 6.23123 89.6159 6.38571L91.6473 9.42857H94.9044V6.85714C94.9044 6.62981 94.9947 6.4118 95.1555 6.25105C95.3162 6.0903 95.5343 6 95.7616 6C95.9889 6 96.2069 6.0903 96.3677 6.25105C96.5284 6.4118 96.6187 6.62981 96.6187 6.85714V9.42857H97.4759C97.7032 9.42857 97.9212 9.51888 98.082 9.67962C98.2427 9.84037 98.333 10.0584 98.333 10.2857C98.333 10.513 98.2427 10.7311 98.082 10.8918C97.9212 11.0525 97.7032 11.1429 97.4759 11.1429H96.6187V12.8571H97.4759Z"
        fill="#1E0306" />
    <defs>
        <clipPath id="clip0_190_17737">
            <rect width="24" height="24" fill="white" transform="translate(0.333008)" />
        </clipPath>
        <clipPath id="clip1_190_17737">
            <rect width="24" height="24" fill="white" transform="translate(40.333)" />
        </clipPath>
    </defs>
</svg>