<svg width="21" height="20" viewBox="0 0 21 20" fill="none" xmlns="http://www.w3.org/2000/svg">
    <mask id="mask0_190_17751" style="mask-type:alpha" maskUnits="userSpaceOnUse" x="0" y="0" width="21" height="20">
        <rect x="0.333008" width="20" height="20" fill="#D9D9D9" />
    </mask>
    <g mask="url(#mask0_190_17751)">
        <path
            d="M10.3327 19.1665L4.33268 14.6665C4.12435 14.5137 3.96115 14.3193 3.8431 14.0832C3.72504 13.8471 3.66602 13.5971 3.66602 13.3332V3.33317C3.66602 2.87484 3.82921 2.48248 4.1556 2.15609C4.48199 1.8297 4.87435 1.6665 5.33268 1.6665H15.3327C15.791 1.6665 16.1834 1.8297 16.5098 2.15609C16.8362 2.48248 16.9993 2.87484 16.9993 3.33317V13.3332C16.9993 13.5971 16.9403 13.8471 16.8223 14.0832C16.7042 14.3193 16.541 14.5137 16.3327 14.6665L10.3327 19.1665ZM10.3327 17.0832L15.3327 13.3332V3.33317H5.33268V13.3332L10.3327 17.0832ZM9.45768 12.4998L14.166 7.7915L12.9993 6.58317L9.45768 10.1248L7.70768 8.37484L6.49935 9.5415L9.45768 12.4998Z"
            fill="#ED3C52" />
    </g>
</svg>