<svg width="21" height="20" viewBox="0 0 21 20" fill="none" xmlns="http://www.w3.org/2000/svg">
<mask id="mask0_190_22777" style="mask-type:alpha" maskUnits="userSpaceOnUse" x="0" y="0" width="21" height="20">
<rect x="0.5" width="20" height="20" fill="#D9D9D9"/>
</mask>
<g mask="url(#mask0_190_22777)">
<path d="M3 15.4167V13.7501H4.66667V15.4167H3ZM3 12.5001V10.8334H4.66667V12.5001H3ZM3 9.58341V7.91675H4.66667V9.58341H3ZM5.91667 18.3334V16.6667H7.58333V18.3334H5.91667ZM8 15.0001C7.54167 15.0001 7.14931 14.8369 6.82292 14.5105C6.49653 14.1841 6.33333 13.7917 6.33333 13.3334V3.33341C6.33333 2.87508 6.49653 2.48272 6.82292 2.15633C7.14931 1.82994 7.54167 1.66675 8 1.66675H15.5C15.9583 1.66675 16.3507 1.82994 16.6771 2.15633C17.0035 2.48272 17.1667 2.87508 17.1667 3.33341V13.3334C17.1667 13.7917 17.0035 14.1841 16.6771 14.5105C16.3507 14.8369 15.9583 15.0001 15.5 15.0001H8ZM8.83333 18.3334V16.6667H10.5V18.3334H8.83333ZM4.66667 18.3334C4.20833 18.3334 3.81597 18.1702 3.48958 17.8438C3.16319 17.5174 3 17.1251 3 16.6667H4.66667V18.3334ZM11.75 18.3334V16.6667H13.4167C13.4167 17.1251 13.2535 17.5174 12.9271 17.8438C12.6007 18.1702 12.2083 18.3334 11.75 18.3334ZM3 6.66675C3 6.20841 3.16319 5.81605 3.48958 5.48966C3.81597 5.16328 4.20833 5.00008 4.66667 5.00008V6.66675H3Z" fill="#1E0306"/>
</g>
</svg>
