<svg width="90" height="90" viewBox="0 0 90 90" fill="none" xmlns="http://www.w3.org/2000/svg">
    <g clip-path="url(#clip0_190_17587)">
        <path fill-rule="evenodd" clip-rule="evenodd"
            d="M9.25728 2.82858C11.0639 1.01967 13.515 0.0022558 16.0716 5.12674e-06H54.643C55.0654 -0.000749248 55.4838 0.0817553 55.8743 0.242802C56.2647 0.403849 56.6197 0.640279 56.9187 0.938577L82.633 26.6529C82.9313 26.9519 83.1677 27.3068 83.3288 27.6973C83.4898 28.0878 83.5723 28.5062 83.5716 28.9286V80.3572C83.5716 82.9146 82.5556 85.3673 80.7472 87.1757C78.9389 88.9841 76.4862 90 73.9287 90H16.0716C13.5141 90 11.0614 88.9841 9.25304 87.1757C7.44465 85.3673 6.42871 82.9146 6.42871 80.3572V9.64286C6.42871 7.08429 7.44443 4.62858 9.25728 2.82858ZM31.8537 25.3929C32.7182 25.3929 33.5742 25.2226 34.3729 24.8918C35.1715 24.561 35.8972 24.0761 36.5085 23.4648C37.1198 22.8535 37.6047 22.1278 37.9355 21.3292C38.2663 20.5305 38.4366 19.6745 38.4366 18.81C38.4366 17.9455 38.2663 17.0895 37.9355 16.2909C37.6047 15.4922 37.1198 14.7665 36.5085 14.1552C35.8972 13.5439 35.1715 13.0591 34.3729 12.7282C33.5742 12.3974 32.7182 12.2271 31.8537 12.2271C30.1078 12.2271 28.4335 12.9207 27.1989 14.1552C25.9644 15.3897 25.2709 17.0641 25.2709 18.81C25.2709 20.5559 25.9644 22.2303 27.1989 23.4648C28.4335 24.6993 30.1078 25.3929 31.8537 25.3929ZM18.4887 54.6429C18.4887 52.425 20.2823 50.625 22.5001 50.625H67.5001C68.5266 50.6814 69.4925 51.1285 70.1997 51.8745C70.907 52.6205 71.3019 53.6088 71.3036 54.6368C71.3052 55.6647 70.9134 56.6544 70.2086 57.4026C69.5037 58.1509 68.5392 58.601 67.513 58.6607H22.513C21.4468 58.6607 20.4242 58.2376 19.6697 57.4843C18.9152 56.731 18.4904 55.7091 18.4887 54.6429ZM18.4887 73.9286C18.4887 71.7107 20.2823 69.9107 22.5001 69.9107H48.2144C49.2408 69.9671 50.2067 70.4142 50.914 71.1602C51.6212 71.9062 52.0162 72.8945 52.0179 73.9225C52.0195 74.9505 51.6277 75.9401 50.9228 76.6883C50.218 77.4366 49.2535 77.8867 48.2273 77.9464H22.513C21.4468 77.9464 20.4242 77.5233 19.6697 76.77C18.9152 76.0167 18.4904 74.9948 18.4887 73.9286ZM31.8601 29.79C27.3601 29.79 23.2523 31.4807 20.1473 34.2643C18.3023 35.9164 19.7423 38.5714 22.2173 38.5714H41.4901C43.9716 38.5714 45.4116 35.9164 43.5666 34.2643C40.3496 31.3762 36.1833 29.7822 31.8601 29.79Z"
            fill="#ED3C52" />
    </g>
    <defs>
        <clipPath id="clip0_190_17587">
            <rect width="90" height="90" fill="white" />
        </clipPath>
    </defs>
</svg>