<svg width="30" height="31" viewBox="0 0 30 31" fill="none" xmlns="http://www.w3.org/2000/svg">
    <g clip-path="url(#clip0_190_17901)">
        <path
            d="M15 18.7432C16.6989 18.7432 18.0762 17.3659 18.0762 15.667C18.0762 13.9681 16.6989 12.5908 15 12.5908C13.3011 12.5908 11.9238 13.9681 11.9238 15.667C11.9238 17.3659 13.3011 18.7432 15 18.7432Z"
            fill="#ED3C52" />
        <path
            d="M15 1.01855C6.9099 1.01855 0.351562 7.57689 0.351562 15.667C0.351562 23.7571 6.9099 30.3154 15 30.3154C23.0901 30.3154 29.6484 23.7571 29.6484 15.667C29.6484 7.57689 23.0901 1.01855 15 1.01855ZM24.0503 19.39C23.98 20.7827 23.5886 22.156 22.5737 23.1601C21.549 24.1738 20.1691 24.5515 18.7631 24.6211H11.237C9.83074 24.5515 8.45109 24.174 7.42635 23.1601C6.41139 22.156 6.0201 20.7827 5.94979 19.39V11.9439C6.0201 10.5513 6.41145 9.17797 7.42635 8.17379C8.45109 7.16012 9.83092 6.78242 11.237 6.71287H18.763C20.1693 6.78242 21.5489 7.15994 22.5737 8.17379C23.5886 9.17797 23.9799 10.5513 24.0502 11.9439L24.0503 19.39Z"
            fill="#ED3C52" />
        <path
            d="M18.6677 8.40978C16.8345 8.3595 13.1654 8.3595 11.3322 8.40978C10.3783 8.43597 9.29679 8.67345 8.6171 9.39942C7.91081 10.1541 7.64392 11.0658 7.61685 12.0857C7.56927 13.8759 7.61685 19.2489 7.61685 19.2489C7.64785 20.2687 7.91081 21.1806 8.6171 21.9352C9.29679 22.6614 10.3783 22.8987 11.3322 22.9249C13.1654 22.9751 16.8345 22.9751 18.6677 22.9249C19.6217 22.8987 20.7031 22.6612 21.3828 21.9352C22.0891 21.1806 22.356 20.2689 22.3831 19.2489V12.0857C22.356 11.0658 22.0891 10.1541 21.3828 9.39942C20.7029 8.67321 19.6214 8.43597 18.6677 8.40978ZM14.9997 20.4354C14.0567 20.4354 13.1348 20.1557 12.3507 19.6318C11.5666 19.1079 10.9555 18.3632 10.5946 17.492C10.2337 16.6207 10.1393 15.662 10.3233 14.7371C10.5072 13.8122 10.9614 12.9626 11.6282 12.2958C12.295 11.629 13.1446 11.1748 14.0695 10.9909C14.9944 10.8069 15.9531 10.9013 16.8244 11.2622C17.6956 11.6231 18.4403 12.2342 18.9642 13.0183C19.4881 13.8024 19.7678 14.7243 19.7678 15.6673C19.7678 16.9319 19.2654 18.1447 18.3713 19.0388C17.4771 19.933 16.2643 20.4354 14.9997 20.4354ZM19.7881 11.8834C19.5995 11.8834 19.4151 11.8274 19.2583 11.7226C19.1015 11.6178 18.9793 11.4689 18.9072 11.2946C18.8351 11.1203 18.8162 10.9286 18.853 10.7436C18.8899 10.5587 18.9807 10.3888 19.1141 10.2554C19.2474 10.1221 19.4174 10.0313 19.6023 9.99453C19.7873 9.95775 19.979 9.97665 20.1533 10.0488C20.3275 10.121 20.4764 10.2432 20.5812 10.4001C20.686 10.5569 20.7419 10.7412 20.7419 10.9298C20.7419 11.0551 20.7172 11.1791 20.6693 11.2948C20.6214 11.4105 20.5511 11.5157 20.4625 11.6042C20.3739 11.6928 20.2688 11.763 20.1531 11.8109C20.0373 11.8588 19.9133 11.8835 19.7881 11.8834Z"
            fill="#ED3C52" />
    </g>
    <defs>
        <clipPath id="clip0_190_17901">
            <rect width="30" height="30" fill="white" transform="translate(0 0.666992)" />
        </clipPath>
    </defs>
</svg>