<svg width="90" height="91" viewBox="0 0 90 91" fill="none" xmlns="http://www.w3.org/2000/svg">
    <path fill-rule="evenodd" clip-rule="evenodd"
        d="M30.6349 32.6915C32.4111 32.6915 33.8577 31.2449 33.8577 29.4687C33.8577 29.1757 33.8211 28.8827 33.7478 28.608L38.9116 24.3415C39.3328 24.5429 39.8089 24.6711 40.3216 24.6711C41.109 24.6711 41.8231 24.3964 42.3724 23.9203L46.7671 26.0628V26.1543C46.7671 27.9305 48.2137 29.3771 49.9899 29.3771C51.7661 29.3771 53.2127 27.9305 53.2127 26.1543C53.2127 25.7698 53.1395 25.4036 53.0113 25.0556L58.4864 19.7087C58.8526 19.8552 59.2554 19.9285 59.6583 19.9285C61.4345 19.9285 62.8811 18.4819 62.8811 16.7057C62.8811 14.9295 61.4345 13.4829 59.6583 13.4829C57.8821 13.4829 56.4355 14.9295 56.4355 16.7057C56.4355 17.0902 56.5088 17.4565 56.6369 17.8044L51.1619 23.1513C50.7956 23.0048 50.3928 22.9315 49.9899 22.9315C49.2025 22.9315 48.4884 23.2062 47.9391 23.6823L43.5444 21.5399C43.5444 21.5033 43.5444 21.4666 43.5444 21.4483C43.5444 19.6721 42.0978 18.2255 40.3216 18.2255C38.5454 18.2255 37.0988 19.6721 37.0988 21.4483C37.0988 21.7413 37.1354 22.0343 37.2087 22.309L32.0449 26.5938C31.6237 26.3924 31.1476 26.2642 30.6349 26.2642C28.8587 26.2642 27.4121 27.7108 27.4121 29.487C27.4121 31.2449 28.8587 32.6915 30.6349 32.6915Z"
        fill="#ED3C52" />
    <path fill-rule="evenodd" clip-rule="evenodd"
        d="M85.3309 76.6751L75.6076 69.9731C74.8019 69.4238 73.7216 69.6252 73.1722 70.4309C72.6229 71.2366 72.8243 72.317 73.63 72.8663L78.7389 76.3821H66.2322V69.7168C66.2322 68.7463 65.4449 67.9589 64.4744 67.9589C63.5039 67.9589 62.7165 68.7463 62.7165 69.7168V76.3821H59.7867V73.9284C59.7867 72.9579 58.9993 72.1705 58.0288 72.1705C57.0583 72.1705 56.2709 72.9579 56.2709 73.9284V76.3821H53.3411V73.9284C53.3411 72.9579 52.5537 72.1705 51.5832 72.1705C50.6127 72.1705 49.8253 72.9579 49.8253 73.9284V76.3821H46.8955V69.7168C46.8955 68.7463 46.1081 67.9589 45.1376 67.9589C44.1671 67.9589 43.3797 68.7463 43.3797 69.7168V76.3821H40.4499V73.9284C40.4499 72.9579 39.6626 72.1705 38.6921 72.1705C37.7216 72.1705 36.9342 72.9579 36.9342 73.9284V76.3821H34.0044V73.9284C34.0044 72.9579 33.217 72.1705 32.2465 72.1705C31.276 72.1705 30.4886 72.9579 30.4886 73.9284V76.3821H27.5588V69.7168C27.5588 68.7463 26.7714 67.9589 25.8009 67.9589C24.8304 67.9589 24.043 68.7463 24.043 69.7168V76.3821H14.1V66.4391H20.7653C21.7358 66.4391 22.5232 65.6517 22.5232 64.6812C22.5232 63.7107 21.7358 62.9233 20.7653 62.9233L14.1 62.9416V60.0118H16.5537C17.5242 60.0118 18.3116 59.2244 18.3116 58.2539C18.3116 57.2834 17.5242 56.496 16.5537 56.496H14.1V53.5662H16.5537C17.5242 53.5662 18.3116 52.7788 18.3116 51.8083C18.3116 50.8378 17.5242 50.0504 16.5537 50.0504H14.1V47.1206H20.7653C21.7358 47.1206 22.5232 46.3333 22.5232 45.3628C22.5232 44.3923 21.7358 43.6049 20.7653 43.6049H14.1V40.6751H16.5537C17.5242 40.6751 18.3116 39.8877 18.3116 38.9172C18.3116 37.9467 17.5242 37.1593 16.5537 37.1593H14.1V34.2295H16.5537C17.5242 34.2295 18.3116 33.4421 18.3116 32.4716C18.3116 31.5011 17.5242 30.7137 16.5537 30.7137H14.1V27.7839H20.7653C21.7358 27.7839 22.5232 26.9965 22.5232 26.026C22.5232 25.0555 21.7358 24.2681 20.7653 24.2681H14.1V11.7615L17.6158 16.8704C17.9454 17.3465 18.4764 17.6395 19.0623 17.6395C19.4286 17.6395 19.7765 17.5296 20.0695 17.3282C20.8569 16.7788 21.0583 15.6801 20.5089 14.8928L13.8253 5.16947C13.514 4.69337 12.9647 4.36377 12.3604 4.36377C11.7378 4.36377 11.2068 4.67506 10.8772 5.16947L4.17526 14.8928C3.62593 15.6985 3.82735 16.7788 4.63305 17.3282C5.43874 17.8775 6.51911 17.6761 7.08676 16.8704L10.6025 11.7615V78.14C10.6025 79.1105 11.3899 79.8979 12.3604 79.8979H78.7389L73.63 83.4136C72.8243 83.963 72.6229 85.0616 73.1722 85.8673C73.5018 86.3434 74.0512 86.6181 74.6188 86.6181C74.9667 86.6181 75.3146 86.5082 75.6076 86.3068L85.3309 79.6049C85.807 79.2936 86.1183 78.7626 86.1366 78.1583V78.14C86.1366 77.5357 85.8253 76.9864 85.3309 76.6751Z"
        fill="#ED3C52" />
    <path fill-rule="evenodd" clip-rule="evenodd"
        d="M44.2591 35.1636H36.3486V42.305V62.5939H44.2591V39.0273V39.0089V38.9906V35.1636Z" fill="#ED3C52" />
    <path fill-rule="evenodd" clip-rule="evenodd" d="M26.6797 43.1655H34.5902V62.5755H26.6797V43.1655Z"
        fill="#ED3C52" />
    <path fill-rule="evenodd" clip-rule="evenodd" d="M46.0166 39.8877H53.9271V62.5937H46.0166V39.8877Z"
        fill="#ED3C52" />
    <path fill-rule="evenodd" clip-rule="evenodd" d="M55.6846 30.439H63.595V62.5936H55.6846V30.439Z" fill="#ED3C52" />
</svg>