<svg width="11" height="13" viewBox="0 0 11 13" fill="none" xmlns="http://www.w3.org/2000/svg">
    <path
        d="M5.5 13L1 9.65714C0.84375 9.54365 0.721354 9.39921 0.632812 9.22381C0.544271 9.04841 0.5 8.8627 0.5 8.66667V1.2381C0.5 0.897619 0.622396 0.606151 0.867188 0.363691C1.11198 0.12123 1.40625 0 1.75 0H9.25C9.59375 0 9.88802 0.12123 10.1328 0.363691C10.3776 0.606151 10.5 0.897619 10.5 1.2381V8.66667C10.5 8.8627 10.4557 9.04841 10.3672 9.22381C10.2786 9.39921 10.1562 9.54365 10 9.65714L5.5 13ZM4.84375 8.04762L8.375 4.55L7.5 3.65238L4.84375 6.28333L3.53125 4.98333L2.625 5.85L4.84375 8.04762Z"
        fill="#ED3C52" />
</svg>