<svg width="21" height="20" viewBox="0 0 21 20" fill="none" xmlns="http://www.w3.org/2000/svg">
    <path
        d="M0.550683 11.0055C0.765179 13.1279 1.65273 15.126 3.08367 16.7081C4.5146 18.2901 6.41394 19.3731 8.50418 19.7988C10.5944 20.2246 12.766 19.9707 14.7018 19.0744C16.6375 18.1781 18.2359 16.6863 19.2634 14.8169C20.2909 12.9476 20.6938 10.7986 20.413 8.68397C20.1323 6.56936 19.1827 4.59993 17.703 3.06341C16.2233 1.52688 14.2911 0.503788 12.1886 0.143592C10.086 -0.216604 7.9234 0.104975 6.01664 1.06135L8.70666 6.42454C9.46936 6.04199 10.3344 5.91336 11.1754 6.05744C12.0164 6.20152 12.7893 6.61075 13.3812 7.22536C13.9731 7.83997 14.3529 8.62774 14.4652 9.47359C14.5775 10.3194 14.4164 11.179 14.0054 11.9268C13.5943 12.6745 12.955 13.2712 12.1807 13.6298C11.4064 13.9883 10.5378 14.0898 9.70167 13.9195C8.86558 13.7492 8.10584 13.316 7.53347 12.6832C6.96109 12.0504 6.60607 11.2512 6.52027 10.4022L0.550683 11.0055Z"
        fill="white" />
</svg>