<svg width="30" height="30" viewBox="0 0 30 30" fill="none" xmlns="http://www.w3.org/2000/svg">
    <path
        d="M21.1863 2.5625C19.535 0.91 17.3375 0 15 0C12.6625 0 10.465 0.91 8.81252 2.5625C5.40127 5.97375 5.40127 11.525 8.82252 14.9463L11.9413 17.9963C12.785 18.8213 13.8925 19.2338 15 19.2338C16.1075 19.2338 17.215 18.8213 18.0588 17.9963L21.1863 14.9363C22.8388 13.2838 23.75 11.0863 23.75 8.74875C23.75 6.41125 22.8388 4.21625 21.1863 2.5625ZM15 12.4875C12.9288 12.4875 11.25 10.8088 11.25 8.7375C11.25 6.66625 12.9288 4.9875 15 4.9875C17.0713 4.9875 18.75 6.66625 18.75 8.7375C18.75 10.8088 17.0713 12.4875 15 12.4875ZM30 20.9525C30.0025 21.395 29.7713 21.805 29.3938 22.0313L17.0675 29.4275C16.43 29.81 15.715 30.0013 15.0013 30.0013C14.2875 30.0013 13.5713 29.81 12.935 29.4275L0.60627 22.0313C0.22752 21.8038 -0.00247983 21.3938 2.01743e-05 20.9525C0.00252017 20.5113 0.23752 20.1038 0.61877 19.8813L6.68752 16.3288C6.81252 16.4663 6.94127 16.6025 7.07377 16.735L10.1925 19.7838C11.4775 21.0413 13.1863 21.735 15 21.735C16.8138 21.735 18.5213 21.0413 19.8075 19.7838L22.955 16.705C23.0775 16.5825 23.1975 16.4563 23.3138 16.3288L29.3813 19.88C29.7625 20.1038 29.9975 20.5125 30 20.9525Z"
        fill="#ED3C52" />
</svg>