<svg width="90" height="90" viewBox="0 0 90 90" fill="none" xmlns="http://www.w3.org/2000/svg">
    <path fill-rule="evenodd" clip-rule="evenodd"
        d="M73.0996 21.8043C72.3953 22.7435 72.3773 23.9546 73.3048 24.75L78.3588 29.0849C79.2196 29.8232 80.5462 29.7244 81.2852 28.8629C82.0186 28.0079 81.9191 26.6704 81.0634 25.9365L76.0086 21.6012C75.1552 20.8696 73.8423 20.9598 73.0996 21.8043ZM21.5186 25.1972C24.4843 24.3457 26.8215 22.0083 27.673 19.0426C27.7182 18.8851 27.8571 18.7803 28.0211 18.7803C28.1851 18.7803 28.3237 18.8849 28.3689 19.0426C29.2204 22.0083 31.5578 24.3457 34.5236 25.1972C34.6812 25.2424 34.7858 25.3812 34.7858 25.5452C34.7858 25.7092 34.6812 25.8479 34.5236 25.8931C31.5578 26.7446 29.2204 29.082 28.3689 32.0479C28.3237 32.2054 28.1849 32.3102 28.0211 32.3102C27.8571 32.3102 27.7184 32.2056 27.6732 32.0479C26.8219 29.0821 24.4845 26.7448 21.5187 25.8933C21.3611 25.8481 21.2565 25.7092 21.2565 25.5452C21.2563 25.3812 21.3609 25.2425 21.5186 25.1972ZM4.33453 9.95783C7.30031 9.10635 9.6375 6.76898 10.489 3.8032C10.5342 3.6457 10.673 3.54094 10.8369 3.54094C11.0009 3.54094 11.1396 3.64553 11.1847 3.8032C12.0362 6.76898 14.3736 9.10635 17.3394 9.95783C17.4969 10.003 17.6016 10.1419 17.6016 10.3059C17.6016 10.4699 17.497 10.6086 17.3394 10.6538C14.3737 11.5052 12.0364 13.8428 11.1849 16.8086C11.1397 16.9661 11.0009 17.0708 10.837 17.0708C10.673 17.0708 10.5343 16.9662 10.4892 16.8086C9.63768 13.8428 7.30031 11.5052 4.33453 10.6538C4.17703 10.6086 4.07244 10.4697 4.07244 10.3059C4.07244 10.1419 4.17703 10.003 4.33453 9.95783ZM4.33453 39.9159C7.30031 39.0644 9.6375 36.727 10.489 33.7612C10.5342 33.6037 10.673 33.499 10.8369 33.499C11.0009 33.499 11.1396 33.6036 11.1847 33.7612C12.0362 36.727 14.3736 39.0644 17.3394 39.9159C17.4969 39.9611 17.6016 40.0999 17.6016 40.2639C17.6016 40.4279 17.497 40.5666 17.3394 40.6118C14.3736 41.4633 12.0362 43.8008 11.1847 46.7666C11.1396 46.9241 11.0007 47.0289 10.8369 47.0289C10.6729 47.029 10.5342 46.9243 10.489 46.7666C9.6375 43.8008 7.30014 41.4635 4.33436 40.6118C4.17686 40.5666 4.07227 40.4278 4.07227 40.2639C4.07244 40.0999 4.17703 39.9611 4.33453 39.9159ZM55.5298 72.7494C54.3805 72.7499 53.423 71.8109 53.4037 70.6625C53.4037 68.7918 53.4012 66.8844 53.4 65.0044C53.4 64.2582 52.7951 63.6534 52.0489 63.6534C51.3028 63.6534 50.6979 64.2582 50.6979 65.0044C50.7007 69.0541 50.703 73.1037 50.706 77.1534C50.7067 78.3153 49.7467 79.2787 48.5838 79.2796C47.4386 79.2802 46.4828 78.3471 46.458 77.2026C46.4537 73.5151 46.4531 69.8059 46.4507 66.1119C46.4507 65.3657 45.8458 64.7608 45.0996 64.7608C44.3534 64.7608 43.7486 65.3657 43.7486 66.1119C43.7519 71.0991 43.7586 76.0866 43.7586 81.0737C43.7595 82.2357 42.7993 83.1987 41.6364 83.1995C40.4892 83.2001 39.521 82.1544 39.4818 81.0311L39.5013 66.5917C39.5013 65.8455 38.8965 65.2407 38.1503 65.2407C37.4041 65.2407 36.7992 65.8455 36.7992 66.5917L36.8085 80.5003C36.8094 81.6608 35.8465 82.6251 34.6865 82.626C33.5248 82.6267 32.5601 81.6669 32.5601 80.5043L32.5629 50.0857C32.5629 49.3395 31.958 48.7346 31.2118 48.7346C31.0461 48.7346 30.8873 48.7645 30.7406 48.8192C29.4887 49.2311 28.5725 49.3641 27.8998 49.2302C27.386 49.1279 26.9897 48.809 26.6461 48.2841C26.2267 47.6432 26.0959 46.903 26.2244 46.2124C26.3529 45.5219 26.7437 44.8757 27.3671 44.4233C28.1471 43.8572 29.1823 43.0611 30.3008 42.2012C33.3265 39.8746 36.9996 37.0499 39.106 36.2097C39.8536 35.9114 40.6386 35.8337 42.0085 35.6982C42.652 35.6345 43.4016 35.5602 44.0636 35.4818C45.4767 35.3141 58.8439 18.6511 61.3604 15.5549C63.5211 16.1518 65.1316 16.7562 67.3062 15.5215C68.5915 14.7916 69.4903 13.6262 69.8936 12.207C70.4033 10.3576 69.9055 8.38547 68.604 6.98977L72.071 2.8125L85.9285 14.3321L80.0077 21.4668L77.6812 19.4732C75.7072 17.859 72.7975 18.0865 71.0961 19.9853C70.2648 20.8165 69.7983 22.4552 69.8928 23.6108C67.2157 23.7971 65.209 26.1392 65.4294 28.8149C62.2028 29.0394 60.0289 32.4332 61.3175 35.4596C57.7796 36.5361 56.7307 41.1963 59.6033 43.6597L60.738 44.633L58.0575 47.9143C57.8436 48.1776 57.7448 48.4972 57.7553 48.8116L57.6518 70.6243C57.6521 71.7857 56.6929 72.7485 55.5298 72.7494ZM67.0823 32.0098C66.2289 31.278 64.9156 31.3678 64.1728 32.2123C63.468 33.1516 63.4501 34.3626 64.3777 35.1584C66.0636 36.6045 67.7573 38.0443 69.4367 39.4973C70.2905 40.2249 71.6 40.1333 72.3415 39.2906C73.046 38.3512 73.0639 37.1403 72.1363 36.3447L67.0823 32.0098ZM67.6727 41.5485L64.0548 38.4453C63.2005 37.7239 61.896 37.8178 61.1571 38.658C60.4525 39.5972 60.4346 40.8085 61.3622 41.6039L64.9685 44.697C65.8219 45.4287 67.135 45.3389 67.878 44.4943C68.574 43.5665 68.6053 42.3339 67.6727 41.5485ZM76.5998 31.1405C77.5272 31.9359 77.5095 33.1472 76.8049 34.0864C76.0619 34.9311 74.7488 35.0211 73.8954 34.2891L68.8413 29.9544C67.9137 29.1589 67.9318 27.9476 68.6362 27.0084C69.379 26.1638 70.6925 26.074 71.5457 26.8059L76.5998 31.1405ZM30.009 81.6989C29.9109 81.3168 29.8585 80.9167 29.8581 80.5046L29.8606 53.8151L11.6208 75.6877L25.4545 87.1875L30.009 81.6989ZM54.1467 20.1424C56.0281 17.8298 57.8979 15.5039 59.7919 13.2021C60.1164 12.7726 60.6814 12.5619 61.2314 12.7139L63.8532 13.4381C65.2981 13.8364 66.8211 12.9996 67.2628 11.5687C67.2746 11.5126 67.2897 11.4571 67.3085 11.4028C67.6462 10.0102 66.7782 8.39197 65.3617 8.06326L60.8686 6.92227C58.5792 6.52342 56.8799 7.65053 56.3965 9.93639C55.6757 13.3462 54.9949 16.7602 54.1467 20.1424Z"
        fill="#ED3C52" />
</svg>