<svg width="90" height="90" viewBox="0 0 90 90" fill="none" xmlns="http://www.w3.org/2000/svg">
    <g clip-path="url(#clip0_190_3147)">
        <path
            d="M82.1007 37.3673L46.9992 2.26069C44.9291 0.19561 41.5802 0.220044 39.5371 2.25806C37.4824 4.31804 37.4824 7.66281 39.5371 9.72016L74.6437 44.8243C76.7003 46.8809 80.0439 46.8809 82.1007 44.8243C84.163 42.762 84.163 39.4292 82.1007 37.3673Z"
            fill="#ED3C52" />
        <path
            d="M36.9334 14.5732L36.6692 15.8976C34.8082 25.2066 30.2853 34.0504 24.168 41.2182L43.2661 60.3164C50.4331 54.2002 59.155 49.5559 68.4644 47.6926L69.7912 47.4284L36.9334 14.5732Z"
            fill="#ED3C52" />
        <path
            d="M20.6671 45.1738L7.61476 58.2235C4.53067 61.3076 4.51784 66.3145 7.61476 69.4115L15.0718 76.8685C18.1559 79.9526 23.1628 79.9652 26.2597 76.8685L39.3108 63.8174L20.6671 45.1738ZM22.5314 65.6831C21.5015 66.713 19.8328 66.713 18.8029 65.6831C17.773 64.6532 17.773 62.9845 18.8029 61.9546L22.5314 58.2261C23.5613 57.1962 25.23 57.1962 26.2599 58.2261C27.2898 59.256 27.2898 60.9247 26.2599 61.9546L22.5314 65.6831Z"
            fill="#ED3C52" />
        <path
            d="M50.3218 78.272L53.9087 74.6852C57.0058 71.5886 56.9956 66.5817 53.9088 63.5001L51.2447 60.834C49.7722 61.8231 48.3659 62.8978 46.9987 64.0446L50.1803 67.231C51.2078 68.2532 51.215 69.9168 50.1803 70.9569L46.5343 74.603L41.1761 69.4116L33.7188 76.869L45.6819 88.4612C47.7234 90.508 51.0754 90.5196 53.1363 88.4586C55.1936 86.4012 55.1936 83.0565 53.1363 80.9989L50.3218 78.272Z"
            fill="#ED3C52" />
        <path
            d="M60.9727 0C59.5153 0 58.3359 1.17932 58.3359 2.63672V7.91017C58.3359 9.36758 59.5153 10.5469 60.9727 10.5469C62.4301 10.5469 63.6094 9.36758 63.6094 7.91017V2.63672C63.6094 1.17932 62.4301 0 60.9727 0Z"
            fill="#ED3C52" />
        <path
            d="M82.0664 21.0938H76.793C75.3356 21.0938 74.1562 22.2731 74.1562 23.7305C74.1562 25.1879 75.3356 26.3672 76.793 26.3672H82.0664C83.5238 26.3672 84.7031 25.1879 84.7031 23.7305C84.7031 22.2731 83.5238 21.0938 82.0664 21.0938Z"
            fill="#ED3C52" />
        <path
            d="M78.6572 6.04587C77.6273 5.01596 75.9586 5.01596 74.9287 6.04587L69.6552 11.3193C68.6253 12.3492 68.6253 14.0179 69.6552 15.0478C70.6851 16.0777 72.3538 16.0779 73.3837 15.0478L78.6572 9.77437C79.6871 8.74446 79.6871 7.07577 78.6572 6.04587Z"
            fill="#ED3C52" />
    </g>
    <defs>
        <clipPath id="clip0_190_3147">
            <rect width="90" height="90" fill="white" />
        </clipPath>
    </defs>
</svg>