<svg width="30" height="31" viewBox="0 0 30 31" fill="none" xmlns="http://www.w3.org/2000/svg">
    <mask id="mask0_190_17891" style="mask-type:luminance" maskUnits="userSpaceOnUse" x="0" y="0" width="30"
        height="31">
        <path d="M0 0.666992H30V30.667H0V0.666992Z" fill="white" />
    </mask>
    <g mask="url(#mask0_190_17891)">
        <path
            d="M17.8263 0.888537L16.9263 0.762221C14.2215 0.37168 11.4613 0.758045 8.96769 1.87627C6.47404 2.9945 4.34963 4.79852 2.84211 7.07801C1.23814 9.25693 0.281977 11.8444 0.0836514 14.5428C-0.114674 17.2411 0.452899 19.9406 1.72105 22.3306C1.85084 22.5702 1.93164 22.8332 1.95875 23.1042C1.98586 23.3753 1.95873 23.6491 1.87895 23.9096C1.23158 26.1359 0.631579 28.378 0 30.7306L0.789474 30.4938C2.92105 29.9254 5.05263 29.357 7.18421 28.8359C7.63412 28.7424 8.10176 28.7864 8.52632 28.9622C10.4387 29.8956 12.5287 30.4091 14.6559 30.4682C16.7831 30.5274 18.8983 30.1308 20.8596 29.3052C22.821 28.4796 24.583 27.244 26.0275 25.6814C27.472 24.1187 28.5656 22.2651 29.2348 20.2451C29.9039 18.225 30.1333 16.0852 29.9074 13.9692C29.6816 11.8532 29.0057 9.80997 27.9252 7.97668C26.8447 6.14338 25.3845 4.56242 23.6427 3.33989C21.9009 2.11736 19.9177 1.28154 17.8263 0.888537ZM21.8053 21.6043C21.2314 22.1181 20.5316 22.4706 19.7772 22.6259C19.0228 22.7813 18.2407 22.7338 17.5105 22.4885C14.2019 21.5569 11.3315 19.481 9.41053 16.6306C8.67677 15.6225 8.0869 14.5172 7.6579 13.3464C7.42556 12.6671 7.38366 11.9372 7.53675 11.2357C7.68984 10.5343 8.03207 9.88821 8.52632 9.36749C8.76693 9.0604 9.09444 8.8329 9.46619 8.71462C9.83795 8.59633 10.2367 8.59275 10.6105 8.70433C10.9263 8.78327 11.1474 9.24117 11.4316 9.58854C11.6621 10.2406 11.9321 10.8785 12.2368 11.4991C12.468 11.8157 12.5646 12.2109 12.5054 12.5984C12.4463 12.9859 12.2362 13.3343 11.9211 13.5675C11.2105 14.1991 11.3211 14.7201 11.8263 15.4306C12.9433 17.0398 14.4846 18.3079 16.2789 19.0938C16.7842 19.3149 17.1632 19.3622 17.4947 18.8412C17.6368 18.6359 17.8263 18.4622 17.9842 18.2727C18.9 17.1201 18.6158 17.1359 20.0684 17.7675C20.5311 17.9617 20.9795 18.1891 21.4105 18.4464C21.8368 18.6991 22.4842 18.9675 22.5789 19.3464C22.6701 19.7575 22.6461 20.1858 22.5096 20.5842C22.3731 20.9825 22.1294 21.3355 21.8053 21.6043Z"
            fill="#ED3C52" />
    </g>
</svg>