<svg width="608" height="343" viewBox="0 0 608 343" fill="none" xmlns="http://www.w3.org/2000/svg">
    <path
        d="M1 142.247H0V143.244L0.996668 143.247L1 142.247ZM600 144.243H601V143.246L600.003 143.243L600 144.243ZM599.293 342.707C599.683 343.098 600.317 343.098 600.707 342.707L607.071 336.343C607.462 335.953 607.462 335.319 607.071 334.929C606.681 334.538 606.047 334.538 605.657 334.929L600 340.586L594.343 334.929C593.953 334.538 593.319 334.538 592.929 334.929C592.538 335.319 592.538 335.953 592.929 336.343L599.293 342.707ZM1 0H0V142.247H1H2V0H1ZM1 142.247L0.996668 143.247L599.997 145.243L600 144.243L600.003 143.243L1.00333 141.247L1 142.247ZM600 144.243H599V342H600H601V144.243H600Z"
        fill="url(#paint0_linear_190_17918)" />
    <defs>
        <linearGradient id="paint0_linear_190_17918" x1="1" y1="25" x2="0.999994" y2="352.793"
            gradientUnits="userSpaceOnUse">
            <stop stop-color="#ED3C52" stop-opacity="0" />
            <stop offset="0.5" stop-color="#ED3C52" />
        </linearGradient>
    </defs>
</svg>