<svg width="90" height="90" viewBox="0 0 90 90" fill="none" xmlns="http://www.w3.org/2000/svg">
    <g clip-path="url(#clip0_190_17610)">
        <path
            d="M22.8934 24.3047L15.0962 24.9071C12.9265 25.0748 10.9942 26.2119 9.79432 28.0268L0.801952 41.6273C-0.108061 43.0036 -0.252728 44.7261 0.414709 46.235C1.08232 47.7439 2.45428 48.7954 4.08464 49.048L11.2239 50.1536C12.894 41.2908 16.892 32.4498 22.8934 24.3047Z"
            fill="#ED3C52" />
        <path
            d="M39.8457 78.7759L40.9515 85.9152C41.2041 87.5456 42.2556 88.9176 43.7644 89.585C44.3921 89.8627 45.0565 89.9998 45.7176 89.9998C46.6463 89.9998 47.5684 89.7293 48.3723 89.1978L61.973 80.2056C63.788 79.0055 64.9251 77.073 65.0924 74.9037L65.6948 67.1064C57.5495 73.1081 48.7087 77.106 39.8457 78.7759Z"
            fill="#ED3C52" />
        <path
            d="M37.1615 73.8277C37.4094 73.8277 37.6586 73.8073 37.9073 73.7659C41.6205 73.145 45.1994 72.0991 48.6134 70.7301L19.2705 41.3872C17.9015 44.801 16.8556 48.3799 16.2347 52.0933C15.99 53.557 16.481 55.0481 17.5302 56.0975L33.9031 72.4704C34.7742 73.3414 35.95 73.8277 37.1615 73.8277Z"
            fill="#ED3C52" />
        <path
            d="M82.8234 39.9026C90.0039 26.0205 90.2698 11.3506 89.8945 4.47061C89.766 2.11323 87.8866 0.233787 85.529 0.105292C84.4088 0.0441207 83.0811 0 81.5847 0C73.8915 0 61.7186 1.16525 50.0971 7.17639C40.8613 11.9536 28.7506 22.4724 21.6055 36.2961C21.6898 36.362 21.7723 36.432 21.85 36.5097L53.4904 68.15C53.568 68.2277 53.6378 68.31 53.7038 68.3944C67.5274 61.2491 78.0463 49.1384 82.8234 39.9026ZM52.3292 19.0264C57.4691 13.8864 65.8329 13.8859 70.9732 19.0264C73.4633 21.5163 74.8346 24.8271 74.8346 28.3485C74.8346 31.8699 73.4633 35.1808 70.9732 37.6707C68.4035 40.2404 65.0268 41.5255 61.6513 41.5259C58.2747 41.5261 54.8996 40.2411 52.3292 37.6707C49.8391 35.1808 48.4676 31.8699 48.4676 28.3485C48.4676 24.8271 49.8391 21.5163 52.3292 19.0264Z"
            fill="#ED3C52" />
        <path
            d="M56.058 33.942C59.1421 37.0261 64.1606 37.0263 67.2447 33.942C68.7387 32.4479 69.5615 30.4616 69.5615 28.3487C69.5615 26.2358 68.7387 24.2495 67.2447 22.7555C65.7028 21.2134 63.6771 20.4424 61.6514 20.4424C59.6258 20.4424 57.6001 21.2134 56.0582 22.7555C54.5642 24.2495 53.7412 26.2358 53.7412 28.3487C53.7412 30.4616 54.564 32.4481 56.058 33.942Z"
            fill="#ED3C52" />
        <path
            d="M2.69052 74.1682C3.36534 74.1682 4.04017 73.9109 4.55485 73.3958L13.1634 64.7873C14.1931 63.7576 14.1931 62.0882 13.1634 61.0584C12.1338 60.0287 10.4643 60.0287 9.43454 61.0584L0.826006 69.667C-0.203721 70.6967 -0.203721 72.3661 0.826006 73.3958C1.34087 73.9107 2.01569 74.1682 2.69052 74.1682Z"
            fill="#ED3C52" />
        <path
            d="M21.0528 68.9476C20.0233 67.9179 18.3537 67.9179 17.324 68.9476L0.773271 85.4983C-0.256455 86.528 -0.256455 88.1974 0.773271 89.2271C1.28813 89.742 1.96296 89.9993 2.63778 89.9993C3.31261 89.9993 3.98743 89.742 4.50212 89.2269L21.0526 72.6764C22.0825 71.6467 22.0825 69.9773 21.0528 68.9476Z"
            fill="#ED3C52" />
        <path
            d="M25.2127 76.8367L16.6043 85.4453C15.5746 86.475 15.5746 88.1444 16.6043 89.1741C17.1192 89.689 17.794 89.9465 18.4687 89.9465C19.1433 89.9465 19.8183 89.6892 20.333 89.1741L28.9415 80.5656C29.9713 79.5359 29.9713 77.8665 28.9415 76.8367C27.912 75.807 26.2424 75.807 25.2127 76.8367Z"
            fill="#ED3C52" />
    </g>
    <defs>
        <clipPath id="clip0_190_17610">
            <rect width="90" height="90" fill="white" />
        </clipPath>
    </defs>
</svg>