<svg width="25" height="24" viewBox="0 0 25 24" fill="none" xmlns="http://www.w3.org/2000/svg">
    <path
        d="M7.53301 19.2L12.333 15.54L17.133 19.2L15.333 13.26L20.133 9.84H14.253L12.333 3.6L10.413 9.84H4.53301L9.33301 13.26L7.53301 19.2ZM12.333 24C10.673 24 9.11301 23.685 7.65301 23.055C6.19301 22.425 4.92301 21.57 3.84301 20.49C2.76301 19.41 1.90801 18.14 1.27801 16.68C0.648008 15.22 0.333008 13.66 0.333008 12C0.333008 10.34 0.648008 8.78 1.27801 7.32C1.90801 5.86 2.76301 4.59 3.84301 3.51C4.92301 2.43 6.19301 1.575 7.65301 0.945C9.11301 0.315 10.673 0 12.333 0C13.993 0 15.553 0.315 17.013 0.945C18.473 1.575 19.743 2.43 20.823 3.51C21.903 4.59 22.758 5.86 23.388 7.32C24.018 8.78 24.333 10.34 24.333 12C24.333 13.66 24.018 15.22 23.388 16.68C22.758 18.14 21.903 19.41 20.823 20.49C19.743 21.57 18.473 22.425 17.013 23.055C15.553 23.685 13.993 24 12.333 24Z"
        fill="#ED3C52" />
</svg>