<svg width="30" height="31" viewBox="0 0 30 31" fill="none" xmlns="http://www.w3.org/2000/svg">
    <path
        d="M15 0.666992C6.72 0.666992 0 7.38699 0 15.667C0 23.947 6.72 30.667 15 30.667C23.28 30.667 30 23.947 30 15.667C30 7.38699 23.28 0.666992 15 0.666992ZM21.96 10.867C21.735 13.237 20.76 18.997 20.265 21.652C20.055 22.777 19.635 23.152 19.245 23.197C18.375 23.272 17.715 22.627 16.875 22.072C15.555 21.202 14.805 20.662 13.53 19.822C12.045 18.847 13.005 18.307 13.86 17.437C14.085 17.212 17.925 13.717 18 13.402C18.0104 13.3543 18.009 13.3048 17.996 13.2577C17.9829 13.2106 17.9585 13.1675 17.925 13.132C17.835 13.057 17.715 13.087 17.61 13.102C17.475 13.132 15.375 14.527 11.28 17.287C10.68 17.692 10.14 17.902 9.66 17.887C9.12 17.872 8.1 17.587 7.335 17.332C6.39 17.032 5.655 16.867 5.715 16.342C5.745 16.072 6.12 15.802 6.825 15.517C11.205 13.612 14.115 12.352 15.57 11.752C19.74 10.012 20.595 9.71199 21.165 9.71199C21.285 9.71199 21.57 9.74199 21.75 9.89199C21.9 10.012 21.945 10.177 21.96 10.297C21.945 10.387 21.975 10.657 21.96 10.867Z"
        fill="#ED3C52" />
</svg>