<svg width="30" height="31" viewBox="0 0 30 31" fill="none" xmlns="http://www.w3.org/2000/svg">
    <circle cx="15" cy="15.667" r="15" fill="#ED3C52" />
    <path
        d="M19.6002 9.48699C18.9167 8.70652 18.5401 7.70439 18.5402 6.66699H15.4502V19.067C15.4268 19.7382 15.1437 20.3741 14.6605 20.8405C14.1773 21.3069 13.5318 21.5674 12.8602 21.567C11.4402 21.567 10.2602 20.407 10.2602 18.967C10.2602 17.247 11.9202 15.957 13.6302 16.487V13.327C10.1802 12.867 7.16016 15.547 7.16016 18.967C7.16016 22.297 9.92016 24.667 12.8502 24.667C15.9902 24.667 18.5402 22.117 18.5402 18.967V12.677C19.7932 13.5768 21.2975 14.0596 22.8402 14.057V10.967C22.8402 10.967 20.9602 11.057 19.6002 9.48699Z"
        fill="#1E0306" />
</svg>