<svg width="31" height="30" viewBox="0 0 31 30" fill="none" xmlns="http://www.w3.org/2000/svg">
    <path
        d="M24.7587 23.8862L28.1975 30H23.895L21.6588 26.025C19.8025 26.96 17.715 27.5 15.4987 27.5C13.2825 27.5 11.195 26.9613 9.33875 26.025L7.1025 30H2.8025L6.24125 23.8862C3.48875 21.37 1.75 17.7638 1.75 13.75C1.75 6.16875 7.91875 0 15.5 0C17.0612 0 18.5575 0.27375 19.9575 0.75625L16.86 3.85375C16.4138 3.7925 15.9625 3.75 15.5 3.75C9.98625 3.75 5.5 8.23625 5.5 13.75C5.5 19.2638 9.98625 23.75 15.5 23.75C21.0138 23.75 25.5 19.2638 25.5 13.75C25.5 13.2875 25.4575 12.835 25.3962 12.39L28.4938 9.2925C28.9762 10.6925 29.25 12.1888 29.25 13.75C29.25 17.7638 27.5112 21.37 24.7587 23.8862ZM19.25 5V7.34875L14.1763 12.4225C13.8363 12.7625 13.625 13.2312 13.625 13.75C13.625 14.785 14.465 15.625 15.5 15.625C16.0188 15.625 16.4875 15.4137 16.8275 15.0737L21.9013 10H24.25L28 6.25H23V1.25L19.25 5ZM16.75 7.18375V6.405C14.4362 6.01 11.98 6.6675 10.1962 8.45C7.27125 11.375 7.27125 16.1325 10.1962 19.0562C13.1213 21.98 17.8787 21.9812 20.8025 19.0562C22.585 17.2738 23.2437 14.8162 22.8475 12.5025H22.0112C19.9387 14.5975 18.27 16.2863 18.1513 16.4037C16.6888 17.8663 14.31 17.8663 12.8475 16.4037C11.385 14.9412 11.385 12.5625 12.8475 11.1C13.3725 10.575 14.9487 8.99125 16.7487 7.1825L16.75 7.18375Z"
        fill="#ED3C52" />
</svg>